<?xml version="1.0" standalone="no"?><!DOCTYPE svg PUBLIC "-//W3C//DTD SVG 1.1//EN" "http://www.w3.org/Graphics/SVG/1.1/DTD/svg11.dtd"><svg t="1676623067687" class="icon" viewBox="0 0 1024 1024" version="1.1" xmlns="http://www.w3.org/2000/svg" p-id="7865" xmlns:xlink="http://www.w3.org/1999/xlink" width="200" height="200"><path d="M778.24 206.4384h-46.08V146.8416a66.56 66.56 0 0 0-66.56-66.56h-307.2a66.56 66.56 0 0 0-66.56 66.56v59.8016H245.76a245.76 245.76 0 0 0-245.76 245.76v368.64a122.88 122.88 0 0 0 122.88 122.88h778.24a122.88 122.88 0 0 0 122.88-122.88v-368.64a245.76 245.76 0 0 0-245.76-245.9648zM343.04 146.8416a15.36 15.36 0 0 1 15.36-15.36h307.2a15.36 15.36 0 0 1 15.36 15.36v59.8016h-337.92zM245.76 257.6384h46.08v98.9184a25.6 25.6 0 1 0 51.2 0v-98.9184h337.92v98.9184a25.6 25.6 0 1 0 51.2 0v-98.9184H778.24a194.7648 194.7648 0 0 1 194.56 194.56v248.832h-921.6V452.1984a194.7648 194.7648 0 0 1 194.56-194.56z m655.36 634.88H122.88a71.68 71.68 0 0 1-71.68-71.68v-68.608h921.6v68.608a71.68 71.68 0 0 1-71.68 71.68z" fill="#282828" p-id="7866"></path></svg>