<svg t="1691830778245" class="icon" viewBox="0 0 1024 1024" version="1.1" xmlns="http://www.w3.org/2000/svg" p-id="4125" width="200" height="200"><path d="M865.726141 362.224066c-19.120332-45.676349-47.26971-86.572614-82.323651-122.157676-35.053942-35.053942-76.481328-62.672199-122.157677-82.323651-47.26971-20.182573-97.726141-30.273859-149.244813-30.273859s-101.975104 10.622407-149.775934 30.804979c-45.676349 19.120332-86.572614 47.26971-122.157676 82.323651-35.053942 35.053942-62.672199 76.481328-82.323651 122.157677-20.182573 47.26971-30.273859 97.726141-30.273859 149.244813s10.091286 101.975104 30.273859 149.244813c19.120332 45.676349 47.26971 86.572614 82.323651 122.157677 35.053942 35.053942 76.481328 62.672199 122.157676 82.323651 47.26971 20.182573 97.726141 30.273859 149.244814 30.273859s101.975104-10.091286 149.244813-30.273859c45.676349-19.120332 86.572614-47.26971 122.157676-82.323651 35.053942-35.053942 62.672199-76.481328 82.323652-122.157677 20.182573-47.26971 30.273859-97.726141 30.273859-149.244813s-10.091286-101.975104-29.742739-149.775934z m-353.726141 467.385893c-175.26971 0-318.141079-142.871369-318.141079-318.141079s142.871369-318.141079 318.141079-318.141079 318.141079 142.871369 318.141079 318.141079-142.871369 318.141079-318.141079 318.141079z" p-id="4126"></path><path d="M532.713693 313.892116c0-17.526971-13.809129-31.3361-31.3361-31.336099-17.526971 0-31.3361 13.809129-31.336099 31.336099v208.19917c0 17.526971 13.809129 31.3361 31.336099 31.3361 1.593361 0 2.655602 0 4.248963-0.53112 1.062241 0 2.655602 0.53112 4.248963 0.53112h200.232365c17.526971 0 31.3361-13.809129 31.336099-31.3361 0-17.526971-13.809129-31.3361-31.336099-31.336099h-176.863071V313.892116z" p-id="4127"></path></svg>