<?xml version="1.0" standalone="no"?><!DOCTYPE svg PUBLIC "-//W3C//DTD SVG 1.1//EN" "http://www.w3.org/Graphics/SVG/1.1/DTD/svg11.dtd"><svg t="1676625388418" class="icon" viewBox="0 0 1024 1024" version="1.1" xmlns="http://www.w3.org/2000/svg" p-id="10537" xmlns:xlink="http://www.w3.org/1999/xlink" width="200" height="200"><path d="M490.666667 170.666667v42.666666H170.666667v640h682.666666v-384h42.666667v384a42.666667 42.666667 0 0 1-42.666667 42.666667H170.666667a42.666667 42.666667 0 0 1-42.666667-42.666667V213.333333a42.666667 42.666667 0 0 1 42.666667-42.666666h320z" fill="#4E4E4E" p-id="10538"></path><path d="M704 384V341.333333H640v42.666667h-42.666667a42.666667 42.666667 0 0 1-42.666666-42.666667V170.666667a42.666667 42.666667 0 0 1 42.666666-42.666667h298.666667a42.666667 42.666667 0 0 1 42.666667 42.666667v170.666666a42.666667 42.666667 0 0 1-42.666667 42.666667h-192zM597.333333 170.666667v170.666666h298.666667V170.666667h-298.666667z" fill="#4E4E4E" p-id="10539"></path><path d="M597.333333 341.333333h42.666667v128h-42.666667z" fill="#4E4E4E" p-id="10540"></path><path d="M597.333333 469.333333l106.666667-128 21.333333 42.666667-72.661333 85.333333z" fill="#4E4E4E" p-id="10541"></path></svg>